<svg width="20" height="20" viewBox="0 0 20 20" fill="none" xmlns="http://www.w3.org/2000/svg">
<path d="M14.3527 4.96818C14.3474 4.91906 14.2077 3.76023 12.9661 3.30414C12.9645 3.30359 12.963 3.30304 12.9615 3.3025L11.3875 2.74992C11.0191 2.62062 10.6155 2.62578 10.2509 2.76429C9.79946 2.93578 9.4499 3.06199 9.24006 3.12929C9.14466 3.15988 9.0443 3.17538 8.94178 3.17538H7.44642C7.43194 3.17538 7.41742 3.17632 7.40298 3.17816C7.34578 3.18558 5.99706 3.37738 5.65767 4.89866C5.65227 4.92286 5.64951 4.94754 5.64951 4.9723V7.87918C5.64951 7.8817 5.64955 7.88417 5.64959 7.88669C5.65183 7.98765 5.72326 10.3723 7.37094 11.4629L7.37946 11.4689C7.3865 11.4739 7.39358 11.4789 7.40098 11.4839C7.4949 11.5473 7.58926 11.6162 7.6815 11.6886C8.1615 12.0655 9.0661 12.6913 9.7797 12.6913C9.78102 12.6913 9.78226 12.6913 9.78362 12.6913C9.82238 12.6956 9.89158 12.7013 9.98538 12.7013C10.3898 12.7013 11.2526 12.5953 12.1169 11.8141C12.2619 11.683 12.425 11.5548 12.6018 11.433L12.627 11.4153C12.6353 11.4095 12.6435 11.4037 12.652 11.3979C13.2017 11.0288 14.1535 10.0763 14.3534 7.8445C14.3543 7.8345 14.3547 7.82437 14.3547 7.81429V5.0047C14.3547 4.9925 14.354 4.98034 14.3527 4.96818Z" fill="#9BA1B2" fill-opacity="0.3"/>
<path d="M15.1515 3.01688C15.1448 2.96391 14.9864 1.82071 13.9103 1.36973C13.9416 1.16895 13.9383 0.910899 13.8109 0.659843C13.6395 0.322422 13.3014 0.102539 12.806 0.00621119C12.7847 0.0020704 12.7631 0 12.7414 0H8.20288C6.36 0 4.86064 1.4993 4.86064 3.34227V5.12315C4.86064 5.58715 5.0188 6.03963 5.30592 6.39711C5.44828 6.57439 5.6236 6.88395 5.65004 7.35199C5.66036 7.53475 5.81332 7.67595 5.9972 7.67087C6.18016 7.66571 6.32576 7.51587 6.32576 7.33287V5.01099C6.5554 4.06139 7.339 3.8766 7.47376 3.85164H8.94179C9.11447 3.85164 9.28427 3.82528 9.44659 3.77325C9.72575 3.68372 10.1686 3.51895 10.491 3.39649C10.7067 3.3145 10.9456 3.31149 11.1634 3.38805L12.735 3.93977C13.5207 4.22959 13.661 4.91939 13.6783 5.02775V7.81435C13.6783 7.99135 13.8148 8.13819 13.9913 8.15135C13.9999 8.15195 14.0083 8.15231 14.0167 8.15231C14.1826 8.15227 14.3258 8.03075 14.3509 7.86423C14.3523 7.85551 14.4873 6.98335 14.9227 6.28507C15.0741 6.04199 15.1543 5.76483 15.1543 5.48359V3.05957C15.1543 3.04532 15.1533 3.03106 15.1515 3.01688Z" fill="#9BA1B2" fill-opacity="0.3"/>
<path d="M10.2384 19.3409L10.237 19.3394C10.2361 19.3385 10.2351 19.3376 10.2343 19.3367L10.1593 19.2618C10.1557 19.2582 10.1521 19.2548 10.1485 19.2514L6.51943 15.9316L6.87407 15.2546C6.92855 15.1506 6.92515 15.0258 6.86519 14.9248C6.80519 14.8239 6.69715 14.7614 6.57979 14.7596L5.71512 14.7462L6.59623 12.9793C6.65795 12.8555 6.63803 12.7067 6.54611 12.6034C6.45419 12.5002 6.30855 12.4633 6.17859 12.5104L1.95856 14.0372C1.16731 14.3233 0.590361 15.0169 0.452898 15.847L0.0166877 18.4811C-0.0427267 18.84 0.0581328 19.2049 0.293366 19.4823C0.528641 19.7596 0.872197 19.9188 1.23587 19.9188H10C10.137 19.9188 10.2603 19.8361 10.3125 19.7096C10.3648 19.583 10.3355 19.4374 10.2384 19.3409Z" fill="#9BA1B2" fill-opacity="0.3"/>
<path d="M19.9833 18.4811L19.5471 15.847C19.4096 15.0169 18.8327 14.3233 18.0415 14.0372L13.8214 12.5104C13.6913 12.4633 13.5458 12.5002 13.4539 12.6034C13.3619 12.7066 13.342 12.8555 13.4037 12.9793L14.2849 14.7462L13.4203 14.7596C13.3029 14.7614 13.1948 14.8239 13.1349 14.9248C13.0749 15.0258 13.0715 15.1505 13.1259 15.2545L13.4805 15.9316L9.85151 19.2514C9.84783 19.2548 9.84419 19.2583 9.84063 19.2618L9.76571 19.3367C9.65959 19.4429 9.63611 19.6063 9.70819 19.7381L9.71083 19.7429C9.77015 19.8513 9.88391 19.9187 10.0075 19.9187H18.7642C19.128 19.9187 19.4715 19.7596 19.7067 19.4822C19.9419 19.2048 20.0427 18.8399 19.9833 18.4811Z" fill="#9BA1B2" fill-opacity="0.3"/>
<path d="M9.42295 14.7597C9.27251 14.6493 9.06083 14.6816 8.95027 14.8321L8.90851 14.8889C8.79807 15.0393 8.83023 15.2507 8.98047 15.3613C9.04083 15.4059 9.11115 15.4273 9.18079 15.4273C9.28443 15.4273 9.38671 15.3798 9.45299 15.2901L9.49535 15.2325C9.60587 15.0819 9.57343 14.8703 9.42295 14.7597Z" fill="#9BA1B2"/>
<path d="M9.51117 17.9766L8.64149 16.3953L9.45345 15.2894C9.56405 15.1389 9.53157 14.9273 9.38105 14.8168C9.23053 14.7062 9.01889 14.7386 8.90837 14.8892L7.96862 16.1691C7.8907 16.2752 7.88146 16.4168 7.94485 16.5322L8.91861 18.3025V18.3025C8.98021 18.4144 9.09589 18.4777 9.21521 18.4777C9.27033 18.4777 9.32621 18.4642 9.37789 18.4358C9.54145 18.3458 9.60117 18.1403 9.51117 17.9766Z" fill="#9BA1B2"/>
<path d="M12.0314 16.1691L11.0955 14.8944C11.0179 14.7888 10.8863 14.7374 10.7577 14.7629C10.6291 14.7881 10.5267 14.8855 10.4949 15.0127C10.4705 15.1104 10.4908 15.2137 10.5504 15.2949L11.3583 16.3953L10.4946 17.9659C10.4672 18.0158 10.4528 18.0721 10.4528 18.1291C10.4528 18.2834 10.5573 18.4181 10.7068 18.4565C10.7348 18.4638 10.7631 18.4673 10.791 18.4673C10.912 18.4673 11.0267 18.4019 11.0873 18.2921L12.0551 16.5323C12.1186 16.4169 12.1093 16.2752 12.0314 16.1691Z" fill="#9BA1B2"/>
<path d="M12.5672 10.8552C12.456 10.7968 12.3215 10.8048 12.218 10.8761C12.0169 11.0147 11.8303 11.1614 11.6633 11.3124C10.7533 12.135 9.88874 12.0237 9.85486 12.0188C9.8345 12.0156 9.81374 12.0142 9.79322 12.0148C9.43358 12.024 8.78514 11.6954 8.09918 11.1566C7.99426 11.0743 7.88666 10.9958 7.77926 10.9232C7.67566 10.8532 7.54178 10.8462 7.43139 10.9049C7.32099 10.9636 7.25195 11.0784 7.25195 11.2035V12.3635C7.25195 12.4661 7.29862 12.563 7.37862 12.6272C7.38806 12.6349 7.39791 12.6419 7.40807 12.6484L9.80578 14.2506C9.80618 14.2508 9.8065 14.2511 9.8069 14.2514L9.81322 14.2556C9.86966 14.293 9.9347 14.3118 9.99998 14.3118C10.0549 14.3118 10.1098 14.2985 10.16 14.2717C10.1706 14.266 10.1808 14.2598 10.1905 14.2532C10.1917 14.2524 10.1928 14.2517 10.194 14.2509C10.1953 14.25 10.1966 14.2491 10.1979 14.2482L12.59 12.6498C12.5996 12.6437 12.609 12.6372 12.618 12.6301C12.7001 12.5661 12.7481 12.4678 12.7481 12.3636V11.1546C12.7481 11.0289 12.6784 10.9137 12.5672 10.8552ZM12.0717 12.1826L9.99994 13.567L7.92822 12.1826V11.875C8.4327 12.2416 9.17474 12.6913 9.77962 12.6913C9.7809 12.6913 9.7823 12.6913 9.78358 12.6913C9.98666 12.7137 11.0223 12.7748 12.0718 11.8542V12.1826H12.0717Z" fill="#9BA1B2"/>
<path d="M10.3335 13.9181C10.3112 13.784 10.2107 13.6763 10.0784 13.6447C9.9461 13.6134 9.8079 13.664 9.72742 13.7736L8.95018 14.8322C8.83962 14.9827 8.87206 15.1944 9.02266 15.3049C9.0829 15.3492 9.15298 15.3705 9.2225 15.3705C9.32646 15.3705 9.42906 15.3227 9.49538 15.2324L10.2685 14.1793C10.3125 14.1219 10.3381 14.0503 10.3381 13.9738C10.3381 13.9552 10.3365 13.9365 10.3335 13.9181Z" fill="#9BA1B2"/>
<path d="M15.1515 3.01688C15.1448 2.96391 14.9864 1.82071 13.9103 1.36973C13.9416 1.16895 13.9383 0.910899 13.8109 0.659843C13.6395 0.322422 13.3014 0.102539 12.806 0.00621119C12.7847 0.0020704 12.7631 0 12.7414 0H8.20288C6.36 0 4.86064 1.4993 4.86064 3.34227V5.12315C4.86064 5.58715 5.0188 6.03963 5.30592 6.39711C5.44828 6.57439 5.6236 6.88395 5.65004 7.35199C5.66036 7.53475 5.81332 7.67595 5.9972 7.67087C6.18016 7.66571 6.32576 7.51587 6.32576 7.33287V5.01099C6.5554 4.06139 7.339 3.8766 7.47376 3.85164H8.94179C9.11447 3.85164 9.28427 3.82528 9.44659 3.77325C9.72575 3.68372 10.1686 3.51895 10.491 3.39649C10.7067 3.3145 10.9456 3.31149 11.1634 3.38805L12.735 3.93977C13.5207 4.22959 13.661 4.91939 13.6783 5.02775V7.81435C13.6783 7.99135 13.8148 8.13819 13.9913 8.15135C13.9999 8.15195 14.0083 8.15231 14.0167 8.15231C14.1826 8.15227 14.3258 8.03075 14.3509 7.86423C14.3523 7.85551 14.4873 6.98335 14.9227 6.28507C15.0741 6.04199 15.1543 5.76483 15.1543 5.48359V3.05957C15.1543 3.04532 15.1533 3.03106 15.1515 3.01688ZM14.4779 5.48343C14.4779 5.63451 14.4353 5.78435 14.3546 5.91759V5.00463C14.3546 4.99239 14.3539 4.98023 14.3526 4.96807C14.3473 4.91899 14.2076 3.76016 12.966 3.30406C12.9645 3.30352 12.9629 3.30297 12.9614 3.30242L11.3874 2.74984C11.2099 2.68754 11.0243 2.65645 10.8387 2.65645C10.6392 2.65645 10.4398 2.69242 10.2508 2.7643C9.79939 2.93578 9.44983 3.062 9.24003 3.12926C9.14459 3.15985 9.04423 3.17539 8.94175 3.17539H7.4464C7.43192 3.17539 7.41736 3.17633 7.40296 3.17817C7.34572 3.18559 5.99704 3.37739 5.6576 4.89867C5.6522 4.92287 5.64948 4.94755 5.64948 4.97231V5.66823C5.57584 5.49807 5.53688 5.31223 5.53688 5.12319V3.34235C5.53688 1.87235 6.73284 0.676367 8.2028 0.676367H12.7073C12.8938 0.716095 13.1204 0.797619 13.2064 0.963479C13.3117 1.16649 13.1917 1.44602 13.1916 1.44625C13.1484 1.53824 13.1489 1.64477 13.1929 1.73637C13.2368 1.82797 13.3197 1.89493 13.4185 1.91871C14.2794 2.12594 14.455 2.9516 14.4779 3.08516V5.48343H14.4779Z" fill="#9BA1B2"/>
<path d="M14.3527 4.96818C14.3474 4.91906 14.2077 3.76023 12.9661 3.30414C12.9645 3.30359 12.963 3.30304 12.9615 3.3025L11.3875 2.74992C11.0191 2.62062 10.6155 2.62578 10.2509 2.76429C9.79946 2.93578 9.4499 3.06199 9.24006 3.12929C9.14466 3.15988 9.0443 3.17538 8.94178 3.17538H7.44642C7.43194 3.17538 7.41742 3.17632 7.40298 3.17816C7.34578 3.18558 5.99706 3.37738 5.65767 4.89866C5.65227 4.92286 5.64951 4.94754 5.64951 4.9723V7.87918C5.64951 7.8817 5.64955 7.88417 5.64959 7.88669C5.65183 7.98765 5.72326 10.3723 7.37094 11.4629L7.37946 11.4689C7.3865 11.4739 7.39358 11.4789 7.40098 11.4839C7.4949 11.5473 7.58926 11.6162 7.6815 11.6886C8.1615 12.0655 9.0661 12.6913 9.7797 12.6913C9.78102 12.6913 9.78226 12.6913 9.78362 12.6913C9.82238 12.6956 9.89158 12.7013 9.98538 12.7013C10.3898 12.7013 11.2526 12.5953 12.1169 11.8141C12.2619 11.683 12.425 11.5548 12.6018 11.433L12.627 11.4153C12.6353 11.4095 12.6435 11.4037 12.652 11.3979C13.2017 11.0288 14.1535 10.0763 14.3534 7.8445C14.3543 7.8345 14.3547 7.82437 14.3547 7.81429V5.0047C14.3547 4.9925 14.354 4.98034 14.3527 4.96818ZM13.6784 7.79902C13.4941 9.81317 12.6359 10.594 12.2749 10.8365C12.2621 10.8451 12.2495 10.854 12.2368 10.8629L12.2181 10.8761C12.0169 11.0147 11.8303 11.1615 11.6633 11.3123C10.7567 12.132 9.89494 12.0245 9.8527 12.0185C9.83306 12.0156 9.81314 12.0143 9.79326 12.0149C9.43358 12.0241 8.78514 11.6955 8.09918 11.1567C7.99426 11.0743 7.88666 10.9958 7.77942 10.9234L7.7711 10.9175C7.76298 10.9118 7.75486 10.906 7.74534 10.8997C6.41574 10.0197 6.32874 7.96022 6.32582 7.8743V5.01102C6.55622 4.05798 7.3447 3.87527 7.47322 3.85168H8.94182C9.11454 3.85168 9.28434 3.82531 9.44662 3.77328C9.72578 3.68374 10.1687 3.51898 10.4911 3.39652C10.7067 3.31452 10.9456 3.31152 11.1634 3.38808L12.7351 3.9398C13.5208 4.22966 13.661 4.91942 13.6784 5.02778L13.6784 7.79902Z" fill="#9BA1B2"/>
<path d="M10.3024 13.8226C10.2497 13.7172 10.1459 13.6469 10.0285 13.6369C9.91135 13.6272 9.79707 13.6787 9.72735 13.7737L8.91735 14.8769C8.80691 15.0274 8.83919 15.2389 8.98951 15.3495C9.04983 15.3938 9.12003 15.4153 9.18959 15.4153C9.29335 15.4153 9.39579 15.3677 9.46207 15.2777L10.2721 14.1786C10.3149 14.1204 10.3381 14.0461 10.3381 13.9739C10.3381 13.9215 10.3258 13.8696 10.3024 13.8226Z" fill="#9BA1B2"/>
<path d="M10.3241 19.2671C10.1971 19.1342 9.98723 19.1272 9.85159 19.2513L9.77431 19.322C9.65855 19.4278 9.63079 19.5993 9.70727 19.7363L9.70963 19.7406C9.76127 19.8331 9.85339 19.8961 9.95835 19.9107C9.97391 19.9128 9.98943 19.9139 10.0049 19.9139C10.0939 19.9139 10.1801 19.8787 10.244 19.8148L10.3189 19.7398C10.4489 19.6099 10.4512 19.3999 10.3241 19.2671Z" fill="#9BA1B2"/>
<path d="M10.2258 19.322L10.1485 19.2513C10.0129 19.1272 9.80294 19.1343 9.6759 19.2671C9.54882 19.4 9.55118 19.61 9.68118 19.7399L9.75618 19.8149C9.82002 19.8788 9.90622 19.9139 9.99522 19.9139C10.0111 19.9139 10.0271 19.9129 10.0431 19.9105C10.1484 19.8955 10.2405 19.8317 10.2917 19.7384L10.2941 19.7342C10.369 19.5975 10.3408 19.4272 10.2258 19.322Z" fill="#9BA1B2"/>
<path d="M10.2315 19.3272L10.231 19.3268C10.1788 19.278 10.1113 19.2458 10.0368 19.2376C9.93721 19.2268 9.84013 19.2605 9.76957 19.3263L9.76853 19.3272C9.70017 19.3896 9.66037 19.4772 9.65837 19.5698C9.65641 19.6623 9.69241 19.7516 9.75801 19.8168L9.76157 19.8204C9.82753 19.886 9.91373 19.9187 9.99997 19.9187C10.0866 19.9187 10.1731 19.8857 10.239 19.8198L10.2426 19.8162C10.3079 19.7508 10.3437 19.6616 10.3416 19.5693C10.3395 19.4769 10.2997 19.3895 10.2315 19.3272Z" fill="#9BA1B2"/>
<path d="M10.1097 13.6465C9.96965 13.6016 9.81601 13.6536 9.73073 13.7735C9.63533 13.9079 9.65109 14.0909 9.76729 14.2076C9.83269 14.2733 9.91949 14.307 10.0069 14.307C10.0748 14.307 10.1431 14.2867 10.202 14.2452C10.292 14.1819 10.3456 14.0787 10.3456 13.9687V13.9679C10.3456 13.8207 10.2499 13.6912 10.1097 13.6465Z" fill="#9BA1B2"/>
<path d="M10.2747 13.7708L10.2718 13.7669C10.1851 13.6495 10.0328 13.6011 9.89412 13.6468C9.75548 13.6924 9.66181 13.822 9.66181 13.9679V13.9737C9.66181 14.0982 9.73169 14.2116 9.84137 14.2706C9.89105 14.2972 9.94592 14.3104 10.0007 14.3104C10.0667 14.3104 10.1327 14.2913 10.1894 14.2537C10.2667 14.2025 10.3196 14.1218 10.3358 14.0305C10.3519 13.9393 10.3298 13.8453 10.2747 13.7708Z" fill="#9BA1B2"/>
<path d="M14.0227 12.7085C13.9876 12.6159 13.9137 12.5433 13.8205 12.51L12.524 12.0452C12.5135 12.0414 12.5026 12.0381 12.4917 12.0354C12.3992 12.0123 12.3011 12.0293 12.2219 12.0823L9.81957 13.6876C9.81897 13.688 9.81825 13.6884 9.81761 13.6889L10.0062 13.9694L9.81338 13.6917C9.7429 13.7383 9.69246 13.8098 9.67198 13.8917C9.66074 13.9367 9.65889 13.9837 9.66649 14.0295C9.67521 14.0817 9.69605 14.1313 9.72749 14.174L11.4863 16.5694C11.5502 16.6565 11.6516 16.7074 11.7588 16.7074C11.7661 16.7074 11.7735 16.7072 11.7809 16.7066C11.8961 16.6991 11.9995 16.6334 12.0551 16.5322L14.0027 12.9912C14.0504 12.9044 14.0577 12.8011 14.0227 12.7085ZM11.7178 15.7421L10.4817 14.0585L12.456 12.7392L13.219 13.0128L11.7178 15.7421Z" fill="#9BA1B2"/>
<path d="M10.3331 13.9155C10.3172 13.8247 10.265 13.7443 10.1884 13.693L7.77815 12.0824C7.70143 12.031 7.60687 12.0135 7.51675 12.0335C7.50291 12.0365 7.48931 12.0405 7.47599 12.0453L6.17948 12.51C6.08628 12.5434 6.0124 12.616 5.97736 12.7086C5.94232 12.8012 5.9496 12.9045 5.99732 12.9913L7.94487 16.5322C8.00051 16.6334 8.10391 16.6992 8.21907 16.7067C8.22643 16.7072 8.23383 16.7074 8.24115 16.7074C8.34835 16.7074 8.44971 16.6565 8.51375 16.5694L9.45351 15.2895C9.45423 15.2885 9.45499 15.2874 9.45571 15.2864L10.2726 14.1738C10.3271 14.0995 10.349 14.0062 10.3331 13.9155ZM8.90843 14.8891C8.90759 14.8902 8.90683 14.8912 8.90599 14.8924L8.28207 15.7422L6.78088 13.0128L7.54395 12.7393L9.51819 14.0586L8.90843 14.8891Z" fill="#9BA1B2"/>
<path d="M19.9833 18.4811L19.5471 15.847C19.4096 15.0169 18.8327 14.3233 18.0415 14.0372L13.8214 12.5104C13.6913 12.4633 13.5458 12.5002 13.4539 12.6034C13.3619 12.7066 13.342 12.8555 13.4037 12.9793L14.2849 14.7462L13.4203 14.7596C13.3029 14.7614 13.1948 14.8239 13.1349 14.9248C13.0749 15.0258 13.0715 15.1505 13.1259 15.2545L13.4805 15.9316L9.85151 19.2514C9.84783 19.2548 9.84419 19.2583 9.84063 19.2618L9.76571 19.3367C9.65959 19.4429 9.63611 19.6063 9.70819 19.7381L9.71083 19.7429C9.77015 19.8513 9.88391 19.9187 10.0075 19.9187H18.7642C19.128 19.9187 19.4715 19.7596 19.7067 19.4822C19.9419 19.2048 20.0427 18.8399 19.9833 18.4811ZM19.191 19.0448C19.0844 19.1704 18.9289 19.2425 18.7642 19.2425H10.8632L14.1293 16.2548C14.2425 16.1513 14.2719 15.9844 14.2006 15.8484L13.98 15.4272L14.8325 15.4141C14.9487 15.4123 15.0558 15.351 15.1163 15.2517C15.1766 15.1524 15.1818 15.0291 15.13 14.9251L14.3863 13.4338L17.8116 14.673C18.3731 14.8761 18.7825 15.3683 18.8801 15.9574L19.3163 18.5915C19.3163 18.5916 19.3163 18.5916 19.3163 18.5916C19.3431 18.754 19.2975 18.9192 19.191 19.0448Z" fill="#9BA1B2"/>
<path d="M10.2344 19.3299L10.2305 19.3264C10.0966 19.2052 9.89112 19.2106 9.76376 19.3386L9.76024 19.3422C9.66396 19.439 9.6354 19.5844 9.68784 19.7104C9.74028 19.8366 9.86348 19.9187 10 19.9187H10.0075C10.1473 19.9187 10.2727 19.8326 10.3229 19.7022C10.3733 19.5717 10.3381 19.4237 10.2344 19.3299Z" fill="#9BA1B2"/>
<path d="M10.2237 19.3202C10.147 19.2511 10.0429 19.2208 9.94093 19.2382C9.83909 19.2554 9.75073 19.3183 9.70105 19.4089L9.69869 19.4131C9.62741 19.5431 9.64909 19.7044 9.75217 19.8109L9.75337 19.8122C9.81965 19.8807 9.90793 19.9152 9.99645 19.9152C10.0779 19.9152 10.1596 19.8859 10.2242 19.8268L10.2278 19.8236C10.2585 19.7956 10.2838 19.7621 10.3024 19.7249C10.3705 19.5889 10.3368 19.4219 10.2237 19.3202Z" fill="#9BA1B2"/>
<path d="M10.2384 19.3408L10.237 19.3394C10.2361 19.3385 10.2351 19.3376 10.2343 19.3367L10.1593 19.2618C10.1557 19.2582 10.1521 19.2547 10.1485 19.2514L6.51943 15.9316L6.87407 15.2545C6.92855 15.1506 6.92515 15.0257 6.86519 14.9248C6.80519 14.8239 6.69715 14.7614 6.57979 14.7595L5.71512 14.7462L6.59623 12.9792C6.65795 12.8555 6.63803 12.7066 6.54611 12.6034C6.45419 12.5002 6.30855 12.4632 6.17859 12.5103L1.95856 14.0372C1.16731 14.3233 0.590361 15.0168 0.452898 15.847L0.0166877 18.4811C-0.0427267 18.84 0.0581328 19.2048 0.293366 19.4822C0.528641 19.7596 0.872197 19.9187 1.23587 19.9187H10C10.137 19.9187 10.2603 19.8361 10.3125 19.7095C10.3648 19.583 10.3355 19.4374 10.2384 19.3408ZM1.23591 19.2425C1.07122 19.2425 0.915673 19.1704 0.809189 19.0448C0.702705 18.9192 0.657077 18.754 0.683953 18.5915L1.12016 15.9574C1.2177 15.3682 1.62712 14.8761 2.18864 14.673L5.61384 13.4338L4.87024 14.925C4.81836 15.029 4.82352 15.1523 4.88396 15.2516C4.94432 15.3509 5.05148 15.4122 5.16768 15.414L6.02023 15.4272L5.79964 15.8484C5.7284 15.9843 5.75772 16.1512 5.87092 16.2548L9.13695 19.2425H1.23591Z" fill="#9BA1B2"/>
<path d="M11.151 15.1765C11.1754 15.0788 11.1551 14.9754 11.0955 14.8943L10.2726 13.7736C10.1861 13.6558 10.0336 13.609 9.89477 13.6545C9.81981 13.6791 9.75805 13.7287 9.71693 13.7921L8.90909 14.8882C8.89753 14.9038 8.88725 14.9206 8.87853 14.9381C8.82321 15.0488 8.83277 15.1809 8.90345 15.2825L9.24749 15.7766L8.88101 18.0866C8.86925 18.1608 8.88253 18.2367 8.91869 18.3025L9.70377 19.7299C9.76321 19.838 9.87677 19.9051 10.0001 19.9051C10.1234 19.9051 10.2369 19.838 10.2964 19.7299L11.0873 18.292C11.1147 18.242 11.1291 18.186 11.1291 18.129C11.1291 18.1112 11.1277 18.0934 11.125 18.0758L10.7601 15.7766L11.1005 15.288C11.1238 15.2542 11.1411 15.2163 11.151 15.1765ZM10.0001 18.8654L9.56705 18.0781L9.93673 15.7481C9.95045 15.6618 9.93017 15.5736 9.88025 15.5019L9.59689 15.0949L10.0011 14.5466L10.4073 15.0998L10.1273 15.5019C10.0774 15.5735 10.0572 15.6618 10.0709 15.7481L10.4389 18.0675L10.0001 18.8654Z" fill="#9BA1B2"/>
</svg>
