<svg width="20" height="20" viewBox="0 0 20 20" fill="none" xmlns="http://www.w3.org/2000/svg">
<path d="M16.64 1.11141C16.0908 1.10351 15.5517 1.25965 15.0918 1.55986C14.6318 1.86006 14.2719 2.29068 14.0581 2.7966C13.8442 3.30253 13.7862 3.86075 13.8914 4.39983C13.9966 4.93893 14.2603 5.43436 14.6487 5.82274C15.0371 6.21112 15.5325 6.47478 16.0716 6.58002C16.6107 6.68522 17.1689 6.62719 17.6748 6.41336C18.1807 6.19953 18.6114 5.83961 18.9116 5.37966C19.2118 4.91967 19.3679 4.38061 19.36 3.83141C19.3654 3.47273 19.2988 3.11661 19.1639 2.78417C19.0292 2.45172 18.829 2.14972 18.5753 1.89606C18.3217 1.64241 18.0197 1.44225 17.6873 1.30747C17.3548 1.17269 16.9987 1.10602 16.64 1.11141Z" fill="#9BA1B2" fill-opacity="0.3"/>
<path d="M19.72 17.3111H18.32V8.55115C18.3204 8.51073 18.3121 8.47074 18.2956 8.43388C18.2791 8.39699 18.2548 8.36413 18.2244 8.33755C18.194 8.31094 18.1582 8.29122 18.1195 8.27976C18.0807 8.2683 18.04 8.26535 18 8.27113H15.24C15.1657 8.27113 15.0945 8.30063 15.042 8.35314C14.9895 8.40566 14.96 8.47686 14.96 8.55115V17.3111H13.92V11.5911C13.9206 11.5128 13.8925 11.4369 13.8408 11.3779C13.7892 11.3189 13.7178 11.2809 13.64 11.2711H10.84C10.7551 11.2711 10.6738 11.3048 10.6137 11.3648C10.5537 11.4249 10.52 11.5063 10.52 11.5911V17.3111H9.52V11.1111C9.51022 11.0334 9.47222 10.9619 9.41325 10.9103C9.35425 10.8587 9.27838 10.8305 9.19999 10.8311H6.44002C6.36164 10.8305 6.28577 10.8587 6.22677 10.9103C6.1678 10.9619 6.1298 11.0334 6.12002 11.1111V17.3111H5.12002V12.9111C5.12002 12.8263 5.08628 12.7449 5.02627 12.6849C4.96626 12.6248 4.88488 12.5911 4.80001 12.5911H2.00001C1.92225 12.6009 1.85079 12.6389 1.79918 12.6979C1.74757 12.7569 1.7194 12.8328 1.72001 12.9111V17.3111H0.320014C0.280035 17.3054 0.23928 17.3083 0.200547 17.3198C0.161813 17.3312 0.126018 17.3509 0.0956187 17.3775C0.0652192 17.4041 0.0409348 17.437 0.0244325 17.4739C0.00792986 17.5107 -0.00039984 17.5507 1.47502e-05 17.5911C1.47502e-05 17.676 0.0337289 17.7574 0.0937405 17.8174C0.153752 17.8774 0.235145 17.9111 0.320014 17.9111H19.68C19.7649 17.9111 19.8462 17.8774 19.9063 17.8174C19.9663 17.7574 20 17.676 20 17.5911C20 17.5169 19.9705 17.4456 19.918 17.3932C19.8655 17.3406 19.7943 17.3111 19.72 17.3111Z" fill="#9BA1B2" fill-opacity="0.3"/>
<path d="M16.64 1.11141C16.0908 1.10351 15.5517 1.25965 15.0918 1.55986C14.6318 1.86006 14.2719 2.29068 14.0581 2.7966C13.8442 3.30253 13.7862 3.86075 13.8914 4.39983C13.9966 4.93893 14.2603 5.43436 14.6487 5.82274C15.0371 6.21112 15.5325 6.47478 16.0716 6.58002C16.6107 6.68522 17.1689 6.62719 17.6748 6.41336C18.1807 6.19953 18.6114 5.83961 18.9116 5.37966C19.2118 4.91967 19.3679 4.38061 19.36 3.83141C19.3654 3.47273 19.2988 3.11661 19.1639 2.78417C19.0292 2.45172 18.829 2.14972 18.5753 1.89606C18.3217 1.64241 18.0197 1.44225 17.6873 1.30747C17.3548 1.17269 16.9987 1.10602 16.64 1.11141ZM16.64 5.99141C16.2095 5.99931 15.7864 5.87835 15.4252 5.64409C15.0639 5.40983 14.7809 5.07292 14.6125 4.67664C14.4441 4.28037 14.3979 3.84279 14.48 3.4201C14.562 2.99741 14.7686 2.6089 15.073 2.30443C15.3775 1.99996 15.766 1.79343 16.1887 1.71137C16.6114 1.6293 17.049 1.67544 17.4452 1.84386C17.8415 2.01229 18.1784 2.2953 18.4127 2.65658C18.647 3.01785 18.7679 3.4409 18.76 3.87141C18.76 4.43367 18.5367 4.9729 18.1391 5.37048C17.7415 5.76804 17.2023 5.99141 16.64 5.99141Z" fill="#9BA1B2"/>
<path d="M17.48 4.27112C17.4809 4.21521 17.4671 4.16004 17.44 4.11112C17.4 4.11112 17.4 4.03112 17.36 3.99112L17.28 3.87112C17.2614 3.84628 17.2372 3.82612 17.2094 3.81224C17.1817 3.79835 17.1511 3.79112 17.12 3.79112L17 3.71112L16.84 3.63112H16.4C16.4 3.59112 16.36 3.59112 16.36 3.55112V3.15112C16.3832 3.13061 16.3975 3.10195 16.4 3.07112L16.48 2.99112H17.2V2.51112H16.84V2.07112H16.36V2.43112L16.2 2.51112L16.04 2.63112L15.96 2.75112C15.9352 2.76975 15.915 2.79391 15.9011 2.82168C15.8873 2.84945 15.88 2.88007 15.88 2.91112L15.8 3.07112V3.43112L15.88 3.55112C15.891 3.61097 15.9187 3.66648 15.96 3.71112C15.96 3.73234 15.9685 3.75269 15.9835 3.76769C15.9985 3.78269 16.0188 3.79112 16.04 3.79112L16.16 3.91112L16.32 3.99112L16.44 4.07112H16.88V4.43112H16.84L16.76 4.51112H15.92L15.8 4.43112V5.0711H16.52V5.43113H16.96V5.03112H17L17.16 4.95112L17.32 4.87111L17.4 4.75113L17.52 4.59113V4.63111C17.5524 4.56969 17.5662 4.50024 17.56 4.43112C17.5491 4.37126 17.5214 4.31576 17.48 4.27112Z" fill="#9BA1B2"/>
<path d="M15.3201 6.9511C15.2659 6.88917 15.19 6.85043 15.1081 6.84301C15.0262 6.83555 14.9445 6.85994 14.8801 6.91111L11.8001 9.35111L7.88009 7.71109C7.76007 7.67111 7.64008 7.67111 7.60007 7.75111L3.36009 10.7511C3.30229 10.7981 3.26269 10.8637 3.24809 10.9367C3.23349 11.0097 3.2448 11.0855 3.28008 11.1511C3.29734 11.2002 3.33008 11.2423 3.37336 11.2712C3.41667 11.3 3.46814 11.3141 3.52009 11.3111C3.55114 11.3111 3.58175 11.3039 3.60953 11.29C3.63729 11.2761 3.66144 11.256 3.68009 11.2311L7.80009 8.31112L11.7601 9.9511C11.8401 9.99112 12.0001 9.99112 12.0401 9.91112L15.2401 7.39112C15.3011 7.33753 15.3422 7.26492 15.3567 7.18505C15.3712 7.10515 15.3583 7.02273 15.3201 6.9511Z" fill="#9BA1B2"/>
<path d="M19.72 17.3111H18.32V8.55111C18.3204 8.51069 18.3121 8.4707 18.2956 8.43384C18.2791 8.39695 18.2548 8.36409 18.2244 8.33751C18.194 8.3109 18.1582 8.29118 18.1195 8.27972C18.0807 8.26826 18.04 8.26531 18 8.27108H15.24C15.1657 8.27108 15.0945 8.30059 15.042 8.3531C14.9895 8.40562 14.96 8.47682 14.96 8.55111V17.3111H13.92V11.5911C13.9206 11.5127 13.8925 11.4368 13.8408 11.3779C13.7892 11.3189 13.7178 11.2809 13.64 11.2711H10.84C10.7551 11.2711 10.6738 11.3048 10.6137 11.3648C10.5537 11.4248 10.52 11.5062 10.52 11.5911V17.3111H9.52V11.1111C9.51022 11.0333 9.47222 10.9619 9.41325 10.9103C9.35425 10.8587 9.27838 10.8305 9.19999 10.8311H6.44002C6.36164 10.8305 6.28577 10.8587 6.22677 10.9103C6.1678 10.9619 6.1298 11.0333 6.12002 11.1111V17.3111H5.12002V12.9111C5.12002 12.8262 5.08628 12.7448 5.02627 12.6848C4.96626 12.6248 4.88488 12.5911 4.80001 12.5911H2.00001C1.92225 12.6009 1.85079 12.6389 1.79918 12.6978C1.74757 12.7569 1.7194 12.8327 1.72001 12.9111V17.3111H0.320014C0.280035 17.3053 0.23928 17.3083 0.200547 17.3197C0.161813 17.3312 0.126018 17.3509 0.0956187 17.3775C0.0652192 17.4041 0.0409348 17.437 0.0244325 17.4738C0.00792986 17.5107 -0.00039984 17.5507 1.47502e-05 17.5911C1.47502e-05 17.676 0.0337289 17.7573 0.0937405 17.8173C0.153752 17.8774 0.235145 17.9111 0.320014 17.9111H19.68C19.7649 17.9111 19.8462 17.8774 19.9063 17.8173C19.9663 17.7573 20 17.676 20 17.5911C20 17.5168 19.9705 17.4456 19.918 17.3931C19.8655 17.3406 19.7943 17.3111 19.72 17.3111ZM4.48 17.3111H2.32001V13.1911H4.48V17.3111ZM8.92001 17.3111H6.72001V11.4311H8.92001V17.3111ZM13.32 17.3111H11.12V11.8711H13.32V17.3111ZM17.72 17.3111H15.56V8.87108H17.72V17.3111Z" fill="#9BA1B2"/>
</svg>
